<svg xmlns="http://www.w3.org/2000/svg" width="720" height="600" viewBox="0 0 720 600" fill="none"><title>six-years-card</title><rect x="42" y="95" width="160" height="240" rx="22" fill="#DAF9ED"/><rect x="423" y="36" width="155" height="250" rx="24" fill="#FFF5D7"/><rect x="506" y="239" width="162" height="213" rx="24" fill="#EEE3FF"/><g transform="rotate(-7 350 300)"><rect x="126" y="90" width="460" height="435" rx="30" fill="#F2F5F4"/><rect x="115" y="78" width="460" height="435" rx="30" fill="#FFFFFF"/><defs><linearGradient id="six" x2=".8" y2="1"><stop stop-color="#9FEFCD"/><stop offset="1" stop-color="#12B992"/></linearGradient></defs><text x="157" y="316" font-family="Arial, sans-serif" font-size="204" font-weight="700" fill="url(#six)">6</text><text x="322" y="222" font-family="Arial, sans-serif" font-size="25" font-weight="700" fill="#171E4B">YEARS OF</text><text x="322" y="258" font-family="Arial, sans-serif" font-size="25" font-weight="700" fill="#171E4B">FULL SERVICE</text><g transform="translate(142 254) scale(.78)"><g stroke="#00A778" stroke-width="2" stroke-linecap="round" stroke-linejoin="round"><path d="M30 235 120 162l80 65M55 216v135h127V215M105 351v-60h32v60M70 249h23v25H70zM143 249h23v25h-23zM177 214l105-87 109 91M211 193v158h145V191M244 351v-74h36v74M235 218h27v26h-27zM302 218h27v26h-27zM341 240l79-57 68 55M376 218v133h87V221M407 351v-55h23v55"/></g><g stroke="#00A778" stroke-width="1.7" stroke-linecap="round" stroke-linejoin="round"><path d="M20 349v-63M493 349v-76M195 346v-45"/><ellipse cx="20" cy="278" rx="16" ry="32" fill="#D5F7E8"/><ellipse cx="493" cy="263" rx="22" ry="42" fill="#D5F7E8"/><ellipse cx="195" cy="293" rx="13" ry="25" fill="#D5F7E8"/></g></g></g></svg>